# xmcd
#
# Track frame offsets: 
#        150
#        16795
#        31408
#        49240
#        64358
#        80208
#        94890
#        111518
#        128615
#        146385
#        166445
#        185873
#        200035
#        217123
#        235475
#
# Disc length: 3399 seconds
#
# Revision: 3
# Processed by: cddbd v1.5.2PL0 Copyright (c) Steve Scherf et al.
# Submitted via: ExactAudioCopy v0.99pb4
#
DISCID=e90d450f
DTITLE=Zdenek Rys - Romantic OBOE
DYEAR=2001
DGENRE=Musical
TTITLE0=Albert Morris - Feeling
TTITLE1=John Lennon, PaulMcCartney - And I Love Her
TTITLE2=Alan Menken, Howard Ashman - Beauty and The Beast
TTITLE3=L. Creatore, G.Wies, H. Perreti - I Can't Help Falling in Love
TTITLE4=Leonard Bernstein - Maria
TTITLE5=Elvis Presley - Love Me Tender
TTITLE6=Karel Vagner - The Message
TTITLE7=Albert Hammond, H. David - 99 Miles From L.A.
TTITLE8=Francis Lai - Emanuelle
TTITLE9=Don Mclean - Vincent
TTITLE10=Mike Batt - Bright Eyes
TTITLE11=Frantisek Manas - The Day He Was Born
TTITLE12=Vitezslav Hadl - Ave Maria
TTITLE13=Claude M. Schoenberg - I Dreamed a Dream
TTITLE14=B.Marcello - Adagio
EXTD=
EXTT0=
EXTT1=
EXTT2=
EXTT3=
EXTT4=
EXTT5=
EXTT6=
EXTT7=
EXTT8=
EXTT9=
EXTT10=
EXTT11=
EXTT12=
EXTT13=
EXTT14=
PLAYORDER=
